<svg width="133" height="50" viewBox="0 0 133 50" fill="none" xmlns="http://www.w3.org/2000/svg">
<path d="M81.9287 7.83985C81.3354 6.87706 81.2694 6.60198 81.8628 5.98304C81.8628 5.98304 82.1924 5.63919 82.522 5.98304C82.7198 6.18936 82.6539 6.67075 82.3902 7.08337C82.3902 7.15214 82.3243 7.35846 81.9287 7.83985ZM131.373 18.7056L131.175 18.9807C128.67 22.2129 126.297 24.7574 124.781 24.7574C123.99 24.7574 123.594 24.1385 124.385 22.6255L129.33 12.8601C130.846 9.90297 129.395 7.83985 127.484 7.83985C125.967 7.83985 124.385 8.73387 122.671 10.7282L128.143 0H124.715L115.09 18.6368L114.892 18.9119C113.639 20.5624 112.123 22.0754 110.738 23.1069C111.859 19.4621 111.595 13.8229 113.705 8.87141L111.134 7.28969C109.684 9.49035 106.585 14.5106 103.487 18.5681L103.223 18.8432C100.718 22.0754 98.3443 24.6199 96.828 24.6199C96.1028 24.6199 95.6413 24.0009 96.4324 22.488L103.75 8.11493H100.322L94.191 20.081C91.5539 22.7631 89.5761 24.2073 88.9169 23.8634C88.0598 23.4508 88.9169 22.0066 89.3124 21.1814L96.0369 8.04616H92.6087L85.8843 21.1126C85.6865 21.5252 85.4887 21.9378 85.3569 22.3505C83.9065 23.8634 82.588 24.895 81.665 24.895C80.8739 24.895 80.4783 24.276 81.2694 22.7631L84.6976 16.0236C85.8843 13.6854 85.2909 12.3099 84.1702 10.797L82.8517 9.00895C83.0495 8.59633 83.3132 8.25247 83.445 7.97739C83.445 7.97739 83.7746 7.42723 84.0383 6.60198C84.4339 5.29534 82.7198 2.88837 80.808 4.53886C78.6983 6.3269 78.5006 7.90862 79.6872 9.69666L80.0169 10.1093C78.5006 12.5163 76.4568 15.7485 74.2154 18.7056C71.7761 21.8691 68.6116 24.4136 66.2383 24.4136C64.1287 24.4136 62.8761 22.9006 64.4583 19.8059L68.0183 12.9289C69.9961 9.14649 73.4902 9.76543 71.4465 13.7541L70.9191 14.7169C70.9191 14.7169 72.1717 14.6481 72.6991 14.5794C73.7539 14.4418 74.2154 13.7541 74.2154 13.7541C76.0613 10.1781 74.2813 7.56477 71.4465 7.56477C68.6776 7.56477 66.4361 9.21526 64.9857 12.0349L61.6235 18.4305L61.4257 18.7056C58.9205 21.9378 56.5472 24.4823 55.0309 24.4823C54.2398 24.4823 53.8442 23.8634 54.6353 22.3505L66.3042 0.0687706H62.8761L53.3168 18.6368L53.0531 18.9119C50.5479 22.1441 48.1746 24.6887 46.6583 24.6887C45.8672 24.6887 45.4716 24.0697 46.2627 22.5568L57.8657 0.0687706H54.4375L44.8123 18.6368L44.5486 18.9119C42.0434 22.1441 39.6701 24.6887 38.1538 24.6887C37.3627 24.6887 36.9671 24.0697 37.7583 22.5568L45.142 8.1837H41.7138L36.3079 18.6368L36.0442 18.9119C33.539 22.1441 31.1656 24.6887 29.6493 24.6887C28.8582 24.6887 28.133 23.8634 28.133 22.0754V20.4936C30.5723 20.8375 33.0775 19.0495 34.7257 15.886C34.7257 15.886 38.7471 8.32125 38.8131 8.04616H35.319L31.0997 16.0236C30.0449 18.0179 27.0782 19.4621 26.2871 16.9176L26.6167 16.3674L30.1108 9.55912L30.9679 7.83985L35.0553 0.0687706H31.6271L22.0019 18.7056H21.936L21.7382 18.9807C20.4856 20.6312 18.9693 22.1441 17.5849 23.1757C18.7056 19.5309 18.4419 13.8917 20.5515 8.94018L17.9804 7.35846C16.5301 9.55912 13.4315 14.5794 10.333 18.6368L10.0693 18.9119C7.56412 22.1441 5.19078 24.6887 3.67448 24.6887C2.88337 24.6887 2.48781 24.0697 3.27892 22.5568L3.67448 21.8003C3.67448 21.8003 0.97151 20.5624 0.246324 22.6255C-0.610715 25.1013 0.905584 27.0269 2.68559 27.0269C5.52041 27.0269 8.81671 23.5883 11.6515 19.9435C13.6293 17.399 15.3434 14.7169 16.5301 12.9289C15.2115 16.9176 15.9367 24.1385 12.6404 24.1385C11.4538 24.1385 10.9923 22.6255 10.9923 22.6255C10.9923 22.6255 9.5419 24.276 9.08041 24.6199C9.47597 25.5139 10.3989 27.0956 12.6404 27.0956C12.9701 27.0956 13.2997 27.0269 13.6293 27.0269C13.6952 27.0269 13.6952 26.9581 13.7612 26.9581C15.6071 26.683 17.453 25.6514 19.1671 24.276L17.8486 26.7518H21.3427L25.2982 19.1182V22.2129C25.2982 25.5139 25.8256 27.1644 28.6605 27.1644C30.3745 27.1644 32.2864 25.8578 34.1323 24.0697C34.0664 25.8578 35.1871 27.1644 37.1649 27.1644C38.879 27.1644 40.7908 25.8578 42.6368 24.0697C42.5709 25.8578 43.6916 27.1644 45.6035 27.1644C47.3175 27.1644 49.2294 25.8578 51.0753 24.0697C51.0094 25.8578 52.1301 27.1644 54.1079 27.1644C56.1516 27.1644 58.3931 25.3764 60.5687 23.0382C60.7664 25.4451 62.4805 27.1644 65.2494 27.1644C69.1391 27.1644 73.0287 23.7259 75.8635 20.081C77.3798 18.0867 78.6983 16.1611 81.2694 12.2412L81.7309 12.8601C82.1924 13.479 82.3243 14.2355 81.9287 15.0608L78.3028 22.1441C76.8524 24.9637 77.8413 27.6458 80.6761 27.6458C82.0606 27.6458 83.5769 26.8205 85.0932 25.5139C85.3569 26.6142 86.0821 27.2332 87.2687 27.2332C89.1806 27.2332 91.2902 25.3076 92.9384 23.5196C92.6087 25.5827 93.7295 27.2332 95.905 27.2332C98.7399 27.2332 102.036 23.7946 104.871 20.1498C106.849 17.6053 108.563 14.9232 109.75 13.1352C108.365 17.1239 109.156 24.3448 105.86 24.3448C105.728 24.3448 105.596 24.3448 105.464 24.276C104.607 24.0009 104.212 22.8318 104.212 22.8318C104.212 22.8318 102.761 24.4823 102.3 24.8262C102.695 25.7202 103.618 27.3019 105.86 27.3019C108.101 27.3019 110.541 25.9265 112.189 24.6199L111.002 26.8893H114.496L119.704 16.7113C124.978 9.28403 127.352 10.2468 125.835 13.0664L121.352 21.6627C119.902 24.4823 120.891 27.1644 123.726 27.1644C126.363 27.1644 129.33 24.276 132.033 20.9063C132.626 19.9435 131.637 18.9807 131.373 18.7056Z" fill="black"/>
<path d="M44.7343 6.60779C45.855 6.60779 46.778 5.645 46.778 4.40713C46.778 3.16925 45.855 2.1377 44.7343 2.1377C43.6135 2.1377 42.7565 3.16925 42.7565 4.40713C42.7565 5.645 43.6135 6.60779 44.7343 6.60779Z" fill="black"/>
<path fill-rule="evenodd" clip-rule="evenodd" d="M55.1205 43.397C55.1205 38.9928 58.121 37.4299 60.6906 37.4299C62.1128 37.4299 63.396 37.9684 64.3038 38.9463C65.2899 40.0088 65.8113 41.5427 65.8113 43.382C65.8113 47.7813 62.934 49.3489 60.2412 49.3489C58.8189 49.3489 57.5356 48.8104 56.6279 47.8325C55.6418 46.77 55.1205 45.2362 55.1205 43.397ZM60.7847 47.926C62.514 47.926 63.5882 46.3908 63.5882 43.9195C63.5882 40.8845 62.205 38.8454 60.1466 38.8454C58.4174 38.8454 57.3432 40.3807 57.3432 42.852C57.3432 45.887 58.7263 47.926 60.7847 47.926Z" fill="black"/>
<path d="M78.7395 37.8025L78.7604 37.6611H80.6915L77.2642 49.1171H74.9437L73.0006 40.7339L70.7428 49.1171H68.3097L65.6814 37.6611H67.8197L69.8681 46.8523L72.1767 37.6611H74.3297L76.4137 46.8807L77.7377 42.0736L77.7439 42.0798C78.545 39.0885 78.7373 37.8169 78.7395 37.8025Z" fill="black"/>
<path fill-rule="evenodd" clip-rule="evenodd" d="M96.9174 41.1903L96.9413 41.2026V40.9332C96.9413 37.9645 94.4884 37.5642 92.0889 37.5642C91.4359 37.5642 90.7411 37.5678 90.2095 37.5737C89.5035 37.581 89.1505 37.6433 89.1505 37.7607V49.11H91.1775V44.3516L91.9182 44.4357L95.6079 49.11H98.1357L93.9276 44.2903C94.9156 43.9577 96.769 43.223 96.9174 41.1903ZM94.8781 40.9931C94.878 41.8313 94.5901 43.2375 92.6619 43.2375C92.4621 43.2375 92.0525 43.2307 92.0149 43.23L91.1851 43.186V38.9204C91.3636 38.8966 91.7 38.8603 92.0745 38.8603C93.5307 38.8603 94.8781 39.1187 94.8781 40.9931Z" fill="black"/>
<path d="M129.349 37.7702L129.388 37.6611H131.528L127.771 44.0476V49.1095H125.743V44.2004L121.567 37.6611H123.884L126.939 42.6282L127.315 41.9207C128.875 39.0717 129.34 37.7943 129.349 37.7702Z" fill="black"/>
<path d="M103.387 39.4306H98.6623V40.6445H100.468V44.7503H101.69V40.6445H103.387V39.4306Z" fill="black"/>
<path fill-rule="evenodd" clip-rule="evenodd" d="M102.977 44.2407C102.977 42.6775 104.122 41.4988 105.64 41.4988C107.183 41.4988 108.303 42.6519 108.303 44.2407C108.303 45.8209 107.183 46.9678 105.64 46.9678C104.097 46.9678 102.977 45.8209 102.977 44.2407ZM105.64 45.739C106.506 45.739 107.044 45.162 107.044 44.2332C107.044 43.3327 106.48 42.7276 105.64 42.7276C104.804 42.7276 104.243 43.3327 104.243 44.2332C104.243 45.1478 104.791 45.739 105.64 45.739Z" fill="black"/>
<path d="M83.5246 43.8393H87.7512V42.4686H83.5246V39.0241H87.889V37.6611H81.4901V49.1096H88.1718V47.7464H83.5246V43.8393Z" fill="black"/>
<path d="M112.174 49.1096H110.147V37.6611H116.545V39.0241H112.174V42.6178H116.386V44.0557H112.174V49.1096Z" fill="black"/>
<path d="M119.581 37.6611H117.554V49.1096H123.974V47.7464H119.581V37.6611Z" fill="black"/>
<path d="M46.9298 37.594C46.9463 37.5936 48.5901 37.5642 49.724 37.5642C51.3215 37.5642 52.9289 37.697 53.8639 38.6625C54.3775 39.1926 54.6367 39.9366 54.6343 40.8739C54.6343 43.7653 52.2436 44.4991 51.2158 44.6803C50.768 44.7621 50.1478 44.8172 49.6732 44.8172C49.4549 44.8172 49.0395 44.7641 48.7982 44.7304V49.1098H46.771V42.3973L47.0165 42.5503C47.9951 43.1607 48.7547 43.4914 49.9632 43.4914C51.6934 43.4914 52.5709 42.6885 52.5709 41.1048C52.5709 39.1322 51.1921 38.8603 49.7021 38.8603C49.3254 38.8603 48.9806 38.8971 48.7982 38.9209V42.3542L48.5915 42.2927C48.5453 42.2789 47.452 41.9467 46.8103 41.1801L46.771 41.1331V37.597L46.9298 37.594Z" fill="black"/>
<path d="M43.5385 41.3398L43.5565 41.2892H44.549L42.8065 44.251V46.5984H41.8664V44.3218L39.9296 41.2892H41.0043L42.4209 43.5927L42.5951 43.2646C43.3188 41.9433 43.5344 41.351 43.5385 41.3398Z" fill="black" stroke="black" stroke-width="0.2"/>
<path d="M37.2515 39.203C38.238 39.2318 39.1706 39.4597 39.1708 40.5875V40.6985C39.1231 41.3005 38.6706 41.6207 38.2619 41.8073C38.7873 41.9711 39.1667 42.3108 39.1836 43.0035L39.1855 43.0028V43.163L39.1836 43.1618C39.1579 44.2346 38.2622 44.4647 37.3038 44.4977H35.6915C35.6853 44.4925 35.6819 44.4422 35.6819 44.4358L35.6864 43.7681V39.2802C35.6864 39.2759 35.689 39.2727 35.6915 39.2687V39.203H37.2515ZM37.0089 42.1973C36.8416 42.1973 36.6912 42.2124 36.6113 42.2222V43.9437C36.6912 43.9535 36.8416 43.9686 37.0089 43.9686C37.526 43.9686 38.0107 43.9009 38.1891 43.4867C38.2446 43.3467 38.2613 43.2015 38.2619 43.0826C38.2619 43.0726 38.2616 43.0623 38.2613 43.052C38.2609 43.0286 38.2589 43.0058 38.2574 42.9837C38.2498 42.8874 38.2301 42.7816 38.1891 42.6786C38.0104 42.2649 37.5257 42.1973 37.0089 42.1973ZM36.9936 39.7334C36.8262 39.7335 36.6757 39.7485 36.5959 39.7583V41.5162L36.9674 41.5347C36.9855 41.535 37.1676 41.5373 37.2566 41.5373C38.1191 41.5373 38.2478 40.9578 38.2479 40.6124C38.2478 39.84 37.6449 39.7334 36.9936 39.7334Z" fill="black" stroke="black" stroke-width="0.2"/>
</svg>
